<?xml version="1.0" encoding="UTF-8"?>
<svg id="Capa_2" data-name="Capa 2" xmlns="http://www.w3.org/2000/svg" viewBox="0 0 3720.78 1310.66">
  <defs>
    <style>
      .cls-1 {
        fill: #8eb524;
      }

      .cls-2 {
        fill: #123e64;
      }
    </style>
  </defs>
  <g id="Layer_1" data-name="Layer 1">
    <g>
      <path class="cls-2" d="M0,86.83h425.79c137.64,0,232.83,36.29,293.29,97.2,52.74,53.14,79.76,121.82,79.76,211.25v2.59c0,139.97-73.32,231.98-185.24,279.94l214.83,316.23h-286.86l-181.38-274.75h-110.63v274.75H0V86.83ZM415.5,522.29c83.62,0,133.78-41.47,133.78-107.57v-2.59c0-72.58-52.74-108.86-135.07-108.86h-164.66v219.02h165.94Z"/>
      <path class="cls-2" d="M870.88,646.7v-2.59c0-204.77,145.36-366.77,351.18-366.77,239.27,0,349.89,177.55,349.89,383.62,0,15.55,0,33.7-1.29,50.54h-465.67c19.3,76.46,74.61,115.34,150.51,115.34,59.17,0,104.2-22.03,154.37-71.28l135.07,112.75c-66.89,85.54-163.37,142.56-301.01,142.56-218.68,0-373.05-147.74-373.05-364.18ZM1344.27,585.79c-9-77.76-55.31-127.01-122.21-127.01s-108.06,49.25-120.92,127.01h243.13Z"/>
      <path class="cls-2" d="M1683.86,47.95h243.12v946.08h-243.12V47.95Z"/>
      <path class="cls-2" d="M2031.18,793.15v-2.59c0-146.45,109.34-220.32,272.71-220.32,64.32,0,127.35,11.66,167.23,27.22v-11.66c0-73.87-45.02-115.34-138.93-115.34-73.32,0-129.92,15.55-192.96,38.88l-50.17-172.37c78.47-32.4,162.08-54.43,281.72-54.43s209.68,29.81,264.99,85.54c52.74,51.84,74.61,124.42,74.61,222.91v403.06h-240.55v-73.87c-48.88,53.14-114.49,89.42-205.82,89.42-132.5,0-232.83-77.76-232.83-216.43ZM2473.69,740.01v-32.4c-25.73-10.37-60.46-18.14-96.48-18.14-70.75,0-111.92,33.7-111.92,86.83v2.59c0,47.95,36.02,76.46,86.19,76.46,72.04,0,122.21-45.36,122.21-115.34Z"/>
      <path class="cls-2" d="M2872.48,776.3v-286.42h-82.33v-196.99h82.33V115.34h243.13v177.55h162.08v196.99h-162.08v238.47c0,49.25,21.87,69.98,66.89,69.98,32.16,0,63.03-9.07,92.62-23.33v191.81c-43.74,24.62-101.62,41.47-169.8,41.47-146.65,0-232.83-64.8-232.83-231.98Z"/>
      <path class="cls-1" d="M3617.21,828.14c19.72,0,37.28-4.31,52.72-12.95l-6.42,146.44c-40.31,33.69-86.17,50.55-137.61,50.55-78.02,0-128.59-18.14-151.75-54.42-15.44-24.19-23.14-49.89-23.14-77.11s1.7-51.19,5.14-71.94l77.16-438.05h218.62l-72.02,408.23c-.86,5.19-1.28,9.95-1.28,14.27,0,23.33,12.86,34.98,38.58,34.98ZM3459.03,159.41c0-55.28,12.22-95.67,36.66-121.17,24.44-25.48,62.38-38.23,113.81-38.23,72.02,0,108.03,31.97,108.03,95.91,0,54.44-12.22,94.17-36.66,119.23s-62.81,37.58-115.09,37.58c-71.17,0-106.75-31.09-106.75-93.31Z"/>
    </g>
    <g>
      <path class="cls-2" d="M66.8,1241.25h-32.8l-.22-24.98h26.5c4.42,0,7.89-.67,10.43-2.01,2.53-1.34,4.36-3.31,5.48-5.92,1.12-2.61,1.68-5.87,1.68-9.78,0-4.49-.58-8.11-1.74-10.86-1.16-2.75-2.99-4.76-5.49-6.03-2.5-1.27-5.74-1.9-9.72-1.9h-13.03v128.71H10.75v-158.14h50.18c8.47,0,16.04.89,22.7,2.66,6.66,1.78,12.33,4.47,17,8.09,4.67,3.62,8.24,8.17,10.7,13.63,2.46,5.47,3.69,11.89,3.69,19.28,0,6.45-1.18,12.49-3.53,18.14-2.35,5.65-6.39,10.23-12.11,13.74-5.72,3.51-13.58,5.34-23.57,5.49l-9.01,9.88ZM65.49,1308.48H24.76l12.82-29.33h27.91c3.76,0,6.7-.82,8.8-2.44,2.1-1.63,3.58-3.8,4.45-6.52.87-2.72,1.3-5.74,1.3-9.07,0-4.05-.42-7.57-1.25-10.54-.83-2.97-2.19-5.27-4.07-6.9-1.88-1.63-4.53-2.44-7.93-2.44h-27.91l.22-24.98h32.26l8.91,9.99c9.49-.43,16.91,1.05,22.27,4.45,5.36,3.4,9.12,7.89,11.3,13.47,2.17,5.58,3.26,11.4,3.26,17.49,0,10.36-1.9,19.01-5.7,25.96-3.8,6.95-9.54,12.16-17.21,15.64-7.68,3.48-17.23,5.21-28.67,5.21Z"/>
      <path class="cls-2" d="M213.36,1150.34h37.25v107.64c0,12.31-2.21,22.36-6.63,30.14-4.42,7.79-10.61,13.49-18.57,17.11-7.97,3.62-17.38,5.43-28.24,5.43s-20.2-1.81-28.24-5.43c-8.04-3.62-14.32-9.32-18.84-17.11-4.53-7.78-6.79-17.83-6.79-30.14v-107.64h37.36v107.64c0,6.52.6,11.46,1.79,14.83s3.02,5.63,5.48,6.79c2.46,1.16,5.54,1.74,9.23,1.74s6.84-.58,9.23-1.74c2.39-1.16,4.14-3.42,5.27-6.79,1.12-3.37,1.68-8.31,1.68-14.83v-107.64Z"/>
      <path class="cls-2" d="M344.93,1266.45c0-2.46-.24-4.69-.71-6.68-.47-1.99-1.38-3.86-2.72-5.59-1.34-1.74-3.35-3.49-6.03-5.27-2.68-1.77-6.26-3.64-10.75-5.59-5.65-2.32-11.19-4.94-16.62-7.87-5.43-2.93-10.3-6.37-14.61-10.32-4.31-3.95-7.77-8.58-10.37-13.9-2.61-5.32-3.91-11.53-3.91-18.63s1.32-12.94,3.96-18.41c2.64-5.47,6.3-10.14,10.97-14.01,4.67-3.87,10.19-6.84,16.56-8.91,6.37-2.06,13.32-3.1,20.85-3.1,9.99,0,18.81,2.01,26.45,6.03,7.64,4.02,13.61,9.7,17.92,17.05,4.31,7.35,6.46,16.02,6.46,26.01h-37.04c0-3.98-.51-7.5-1.52-10.54-1.01-3.04-2.59-5.43-4.72-7.17-2.14-1.74-4.94-2.61-8.42-2.61-3.11,0-5.74.72-7.87,2.17-2.14,1.45-3.75,3.39-4.83,5.81-1.09,2.43-1.63,5.09-1.63,7.98,0,2.39.54,4.54,1.63,6.46,1.09,1.92,2.59,3.71,4.51,5.38,1.92,1.67,4.16,3.26,6.73,4.78,2.57,1.52,5.34,3,8.31,4.45,7.17,2.68,13.52,5.67,19.06,8.96,5.54,3.3,10.19,7.02,13.96,11.19,3.76,4.16,6.61,8.89,8.53,14.17,1.92,5.29,2.88,11.26,2.88,17.92,0,7.1-1.14,13.4-3.42,18.9-2.28,5.5-5.59,10.16-9.94,13.96-4.34,3.8-9.58,6.68-15.69,8.63-6.12,1.96-13.02,2.93-20.69,2.93-7.02,0-13.92-1.03-20.69-3.09-6.77-2.06-12.89-5.25-18.36-9.56-5.47-4.31-9.83-9.85-13.09-16.62s-4.89-14.83-4.89-24.17h37.36c0,4.63.36,8.54,1.09,11.73.72,3.19,1.86,5.74,3.42,7.66,1.56,1.92,3.57,3.3,6.03,4.13,2.46.83,5.5,1.25,9.12,1.25,3.33,0,5.92-.71,7.77-2.12,1.85-1.41,3.13-3.29,3.86-5.65.72-2.35,1.09-4.94,1.09-7.77Z"/>
      <path class="cls-2" d="M481.18,1254.94h37.15c.07,11.88-2.23,21.99-6.9,30.36-4.67,8.36-11.24,14.68-19.71,18.95-8.47,4.27-18.39,6.41-29.76,6.41-9.2,0-17.34-1.59-24.44-4.78-7.1-3.19-13.07-7.82-17.92-13.9-4.85-6.08-8.51-13.45-10.97-22.1-2.46-8.65-3.69-18.48-3.69-29.49v-22.05c0-10.93,1.32-20.75,3.96-29.43,2.64-8.69,6.41-16.08,11.3-22.16s10.82-10.72,17.81-13.9c6.99-3.19,14.79-4.78,23.41-4.78,12.09,0,22.32,2.26,30.68,6.79,8.36,4.53,14.79,11.04,19.28,19.55,4.49,8.51,6.88,18.7,7.17,30.57h-37.15c.36-6.88-.07-12.29-1.3-16.24-1.23-3.95-3.39-6.73-6.46-8.36-3.08-1.63-7.15-2.44-12.22-2.44-3.48,0-6.41.69-8.8,2.06-2.39,1.38-4.31,3.64-5.76,6.79-1.45,3.15-2.5,7.3-3.15,12.44-.65,5.14-.98,11.44-.98,18.9v22.27c0,7.6.25,13.98.76,19.12.51,5.14,1.47,9.29,2.88,12.44,1.41,3.15,3.37,5.41,5.87,6.79,2.5,1.38,5.74,2.06,9.72,2.06,4.2,0,7.78-.71,10.75-2.12,2.97-1.41,5.21-3.98,6.73-7.71,1.52-3.73,2.1-9.07,1.74-16.02Z"/>
      <path class="cls-2" d="M601.02,1183.58l-29.43,124.91h-39.97l48.77-158.14h24.98l-4.34,33.24ZM625.24,1249.51v29.43h-68.54v-29.43h68.54ZM624.05,1308.48l-29.43-124.91-4.89-33.24h25.42l48.88,158.14h-39.97Z"/>
      <path class="cls-2" d="M719.56,1150.34v158.14h-37.15v-158.14h37.15ZM726.84,1308.48h-29l.22-29.33h28.78c5.43,0,9.86-1.2,13.3-3.58,3.44-2.39,5.99-6.35,7.66-11.89,1.66-5.54,2.5-12.94,2.5-22.21v-24.22c0-6.95-.45-12.82-1.36-17.59-.91-4.78-2.3-8.62-4.18-11.51-1.88-2.9-4.38-5.01-7.49-6.35-3.11-1.34-6.81-2.01-11.08-2.01h-28.89v-29.43h28.89c9.27,0,17.69,1.5,25.25,4.51,7.57,3.01,14.1,7.42,19.6,13.25,5.5,5.83,9.74,12.87,12.71,21.12,2.97,8.25,4.45,17.67,4.45,28.24v24c0,10.5-1.48,19.9-4.45,28.19-2.97,8.29-7.19,15.33-12.65,21.12-5.47,5.79-11.95,10.19-19.44,13.2-7.49,3.01-15.77,4.51-24.82,4.51Z"/>
      <path class="cls-2" d="M928.68,1217.57v23.89c0,11.37-1.41,21.36-4.24,29.98-2.82,8.62-6.84,15.84-12.06,21.67-5.21,5.83-11.39,10.21-18.52,13.14-7.13,2.93-15.04,4.4-23.73,4.4s-16.73-1.47-23.9-4.4-13.36-7.31-18.57-13.14c-5.21-5.83-9.23-13.05-12.06-21.67-2.82-8.62-4.24-18.61-4.24-29.98v-23.89c0-11.37,1.41-21.4,4.24-30.09,2.82-8.69,6.82-15.93,12-21.72,5.18-5.79,11.35-10.17,18.52-13.14,7.17-2.97,15.13-4.45,23.9-4.45s16.63,1.49,23.84,4.45c7.2,2.97,13.38,7.35,18.52,13.14,5.14,5.79,9.14,13.03,12,21.72,2.86,8.69,4.29,18.72,4.29,30.09ZM890.99,1241.47v-24.11c0-7.09-.43-13.14-1.3-18.14-.87-5-2.17-9.05-3.91-12.17-1.74-3.11-3.91-5.39-6.52-6.84-2.61-1.45-5.69-2.17-9.23-2.17s-6.84.72-9.45,2.17c-2.61,1.45-4.76,3.73-6.46,6.84-1.7,3.11-2.95,7.17-3.75,12.17-.8,5-1.19,11.04-1.19,18.14v24.11c0,7.02.4,13.02,1.19,17.98.8,4.96,2.04,9.03,3.75,12.22,1.7,3.19,3.89,5.52,6.57,7.01,2.68,1.49,5.83,2.23,9.45,2.23s6.53-.74,9.18-2.23c2.64-1.48,4.81-3.82,6.52-7.01,1.7-3.18,2.99-7.26,3.86-12.22.87-4.96,1.3-10.95,1.3-17.98Z"/>
      <path class="cls-2" d="M954.57,1150.34h54.09c10.57,0,19.73,1.81,27.48,5.43,7.75,3.62,13.7,8.98,17.87,16.07,4.16,7.1,6.25,15.86,6.25,26.28,0,9.05-1.14,16.62-3.42,22.7-2.28,6.08-5.48,11.1-9.61,15.04-4.13,3.95-8.98,7.19-14.55,9.72l-12.06,7.06h-42.47l-.22-29.43h29.87c3.4,0,6.23-.87,8.47-2.61,2.24-1.74,3.93-4.22,5.05-7.44,1.12-3.22,1.68-7.08,1.68-11.57s-.54-8.47-1.63-11.73c-1.09-3.26-2.66-5.76-4.72-7.49-2.06-1.74-4.73-2.61-7.98-2.61h-16.94v128.71h-37.15v-158.14ZM1024.63,1308.48l-28.02-69.95,39.32-.22,28.56,68.54v1.63h-39.86Z"/>
      <path class="cls-2" d="M1181.88,1150.34v158.14h-37.15v-158.14h37.15ZM1238.47,1150.34v29.43h-69.51v-29.43h69.51ZM1229.13,1213.12v28.35h-60.17v-28.35h60.17ZM1238.14,1279.16v29.33h-69.19v-29.33h69.19Z"/>
      <path class="cls-2" d="M1326.16,1266.45c0-2.46-.24-4.69-.71-6.68-.47-1.99-1.38-3.86-2.72-5.59-1.34-1.74-3.35-3.49-6.03-5.27-2.68-1.77-6.26-3.64-10.75-5.59-5.65-2.32-11.19-4.94-16.62-7.87-5.43-2.93-10.3-6.37-14.61-10.32-4.31-3.95-7.77-8.58-10.37-13.9-2.61-5.32-3.91-11.53-3.91-18.63s1.32-12.94,3.96-18.41c2.64-5.47,6.3-10.14,10.97-14.01,4.67-3.87,10.19-6.84,16.56-8.91,6.37-2.06,13.32-3.1,20.85-3.1,9.99,0,18.81,2.01,26.45,6.03,7.64,4.02,13.61,9.7,17.92,17.05,4.31,7.35,6.46,16.02,6.46,26.01h-37.04c0-3.98-.51-7.5-1.52-10.54-1.01-3.04-2.59-5.43-4.72-7.17-2.14-1.74-4.94-2.61-8.42-2.61-3.11,0-5.74.72-7.87,2.17-2.14,1.45-3.75,3.39-4.83,5.81-1.09,2.43-1.63,5.09-1.63,7.98,0,2.39.54,4.54,1.63,6.46,1.09,1.92,2.59,3.71,4.51,5.38,1.92,1.67,4.16,3.26,6.73,4.78,2.57,1.52,5.34,3,8.31,4.45,7.17,2.68,13.52,5.67,19.06,8.96,5.54,3.3,10.19,7.02,13.96,11.19,3.76,4.16,6.61,8.89,8.53,14.17,1.92,5.29,2.88,11.26,2.88,17.92,0,7.1-1.14,13.4-3.42,18.9-2.28,5.5-5.59,10.16-9.94,13.96-4.34,3.8-9.58,6.68-15.69,8.63-6.12,1.96-13.02,2.93-20.69,2.93-7.02,0-13.92-1.03-20.69-3.09-6.77-2.06-12.89-5.25-18.36-9.56-5.47-4.31-9.83-9.85-13.09-16.62s-4.89-14.83-4.89-24.17h37.36c0,4.63.36,8.54,1.09,11.73.72,3.19,1.86,5.74,3.42,7.66,1.56,1.92,3.57,3.3,6.03,4.13,2.46.83,5.5,1.25,9.12,1.25,3.33,0,5.92-.71,7.77-2.12,1.85-1.41,3.13-3.29,3.86-5.65.72-2.35,1.09-4.94,1.09-7.77Z"/>
      <path class="cls-2" d="M1443.94,1254.83h-31.61v-29.43h31.61c3.69,0,6.68-.91,8.96-2.72,2.28-1.81,3.95-4.33,5-7.55,1.05-3.22,1.58-6.86,1.58-10.92,0-4.34-.53-8.36-1.58-12.06-1.05-3.69-2.71-6.68-5-8.96-2.28-2.28-5.27-3.42-8.96-3.42h-18.03v128.71h-37.15v-158.14h55.18c10.93,0,20.36,2.32,28.29,6.95,7.93,4.63,14.05,10.99,18.36,19.06,4.31,8.07,6.46,17.29,6.46,27.64s-2.16,19.12-6.46,26.72c-4.31,7.6-10.43,13.52-18.36,17.76-7.93,4.24-17.36,6.35-28.29,6.35Z"/>
      <path class="cls-2" d="M1560.2,1150.34v158.14h-37.15v-158.14h37.15ZM1616.79,1150.34v29.43h-69.51v-29.43h69.51ZM1607.45,1213.12v28.35h-60.17v-28.35h60.17ZM1616.46,1279.16v29.33h-69.19v-29.33h69.19Z"/>
      <path class="cls-2" d="M1711.76,1254.94h37.15c.07,11.88-2.23,21.99-6.9,30.36-4.67,8.36-11.24,14.68-19.71,18.95s-18.39,6.41-29.76,6.41c-9.2,0-17.34-1.59-24.44-4.78-7.1-3.19-13.07-7.82-17.92-13.9-4.85-6.08-8.51-13.45-10.97-22.1-2.46-8.65-3.69-18.48-3.69-29.49v-22.05c0-10.93,1.32-20.75,3.96-29.43,2.64-8.69,6.41-16.08,11.3-22.16s10.82-10.72,17.81-13.9c6.99-3.19,14.79-4.78,23.41-4.78,12.09,0,22.32,2.26,30.68,6.79,8.36,4.53,14.79,11.04,19.28,19.55,4.49,8.51,6.88,18.7,7.17,30.57h-37.15c.36-6.88-.07-12.29-1.3-16.24-1.23-3.95-3.39-6.73-6.46-8.36-3.08-1.63-7.15-2.44-12.22-2.44-3.48,0-6.41.69-8.8,2.06-2.39,1.38-4.31,3.64-5.76,6.79-1.45,3.15-2.5,7.3-3.15,12.44-.65,5.14-.98,11.44-.98,18.9v22.27c0,7.6.25,13.98.76,19.12.5,5.14,1.47,9.29,2.88,12.44,1.41,3.15,3.37,5.41,5.87,6.79,2.5,1.38,5.74,2.06,9.72,2.06,4.2,0,7.78-.71,10.75-2.12,2.97-1.41,5.21-3.98,6.73-7.71,1.52-3.73,2.1-9.07,1.74-16.02Z"/>
      <path class="cls-2" d="M1810.75,1150.34v158.14h-37.04v-158.14h37.04Z"/>
      <path class="cls-2" d="M1902.35,1183.58l-29.43,124.91h-39.97l48.77-158.14h24.98l-4.34,33.24ZM1926.57,1249.51v29.43h-68.54v-29.43h68.54ZM1925.38,1308.48l-29.43-124.91-4.89-33.24h25.42l48.88,158.14h-39.97Z"/>
      <path class="cls-2" d="M2020.89,1150.34v158.14h-37.15v-158.14h37.15ZM2074.33,1279.16v29.33h-66.47v-29.33h66.47Z"/>
      <path class="cls-2" d="M2135.63,1150.34v158.14h-37.04v-158.14h37.04Z"/>
      <path class="cls-2" d="M2255.8,1150.34v29.43h-94.49v-29.43h94.49ZM2267.64,1169.89l-78.09,138.59h-26.94v-20.09l79.18-138.05h25.85v19.55ZM2267.74,1279.16v29.33h-96.77v-29.33h96.77Z"/>
      <path class="cls-2" d="M2351.96,1183.58l-29.43,124.91h-39.97l48.77-158.14h24.98l-4.34,33.24ZM2376.18,1249.51v29.43h-68.54v-29.43h68.54ZM2374.99,1308.48l-29.43-124.91-4.89-33.24h25.42l48.88,158.14h-39.97Z"/>
      <path class="cls-2" d="M2470.5,1150.34v158.14h-37.15v-158.14h37.15ZM2477.78,1308.48h-29l.22-29.33h28.78c5.43,0,9.87-1.2,13.3-3.58,3.44-2.39,5.99-6.35,7.66-11.89,1.67-5.54,2.5-12.94,2.5-22.21v-24.22c0-6.95-.45-12.82-1.36-17.59-.91-4.78-2.3-8.62-4.18-11.51-1.88-2.9-4.38-5.01-7.49-6.35-3.11-1.34-6.81-2.01-11.08-2.01h-28.89v-29.43h28.89c9.27,0,17.69,1.5,25.25,4.51,7.57,3.01,14.1,7.42,19.6,13.25,5.5,5.83,9.74,12.87,12.71,21.12,2.97,8.25,4.45,17.67,4.45,28.24v24c0,10.5-1.48,19.9-4.45,28.19-2.97,8.29-7.19,15.33-12.65,21.12-5.47,5.79-11.95,10.19-19.44,13.2-7.5,3.01-15.77,4.51-24.82,4.51Z"/>
      <path class="cls-2" d="M2679.62,1217.57v23.89c0,11.37-1.41,21.36-4.24,29.98-2.82,8.62-6.84,15.84-12.06,21.67-5.21,5.83-11.39,10.21-18.52,13.14-7.13,2.93-15.04,4.4-23.73,4.4s-16.73-1.47-23.89-4.4c-7.17-2.93-13.36-7.31-18.57-13.14-5.21-5.83-9.23-13.05-12.06-21.67-2.82-8.62-4.24-18.61-4.24-29.98v-23.89c0-11.37,1.41-21.4,4.24-30.09,2.82-8.69,6.82-15.93,12-21.72,5.18-5.79,11.35-10.17,18.52-13.14,7.17-2.97,15.13-4.45,23.9-4.45s16.63,1.49,23.84,4.45c7.2,2.97,13.38,7.35,18.52,13.14,5.14,5.79,9.14,13.03,12,21.72,2.86,8.69,4.29,18.72,4.29,30.09ZM2641.94,1241.47v-24.11c0-7.09-.43-13.14-1.3-18.14-.87-5-2.17-9.05-3.91-12.17-1.74-3.11-3.91-5.39-6.52-6.84-2.61-1.45-5.68-2.17-9.23-2.17s-6.84.72-9.45,2.17c-2.61,1.45-4.76,3.73-6.46,6.84-1.7,3.11-2.95,7.17-3.75,12.17-.8,5-1.19,11.04-1.19,18.14v24.11c0,7.02.4,13.02,1.19,17.98.8,4.96,2.04,9.03,3.75,12.22,1.7,3.19,3.89,5.52,6.57,7.01,2.68,1.49,5.83,2.23,9.45,2.23s6.53-.74,9.18-2.23c2.64-1.48,4.81-3.82,6.52-7.01,1.7-3.18,2.99-7.26,3.86-12.22.87-4.96,1.3-10.95,1.3-17.98Z"/>
      <path class="cls-2" d="M2800.27,1150.34v158.14h-37.15v-158.14h37.15ZM2807.55,1308.48h-29l.22-29.33h28.78c5.43,0,9.87-1.2,13.3-3.58,3.44-2.39,5.99-6.35,7.66-11.89,1.67-5.54,2.5-12.94,2.5-22.21v-24.22c0-6.95-.45-12.82-1.36-17.59-.91-4.78-2.3-8.62-4.18-11.51-1.88-2.9-4.38-5.01-7.49-6.35-3.11-1.34-6.81-2.01-11.08-2.01h-28.89v-29.43h28.89c9.27,0,17.69,1.5,25.25,4.51,7.57,3.01,14.1,7.42,19.6,13.25,5.5,5.83,9.74,12.87,12.71,21.12,2.97,8.25,4.45,17.67,4.45,28.24v24c0,10.5-1.48,19.9-4.45,28.19-2.97,8.29-7.19,15.33-12.65,21.12-5.47,5.79-11.95,10.19-19.44,13.2-7.5,3.01-15.77,4.51-24.82,4.51Z"/>
      <path class="cls-2" d="M2931.63,1150.34v158.14h-37.15v-158.14h37.15ZM2988.21,1150.34v29.43h-69.51v-29.43h69.51ZM2978.87,1213.12v28.35h-60.17v-28.35h60.17ZM2987.89,1279.16v29.33h-69.19v-29.33h69.19Z"/>
      <path class="cls-2" d="M3104.41,1150.34v158.14h-37.15v-158.14h37.15ZM3157.84,1279.16v29.33h-66.47v-29.33h66.47Z"/>
      <path class="cls-2" d="M3242.06,1183.58l-29.43,124.91h-39.97l48.77-158.14h24.98l-4.34,33.24ZM3266.28,1249.51v29.43h-68.54v-29.43h68.54ZM3265.09,1308.48l-29.43-124.91-4.89-33.24h25.42l48.88,158.14h-39.97Z"/>
      <path class="cls-2" d="M3432.33,1258.85v-108.5h37.04v108.5c0,10.57-2.08,19.73-6.25,27.48-4.16,7.75-9.81,13.74-16.94,17.98-7.13,4.24-15.12,6.35-23.95,6.35s-17.14-1.77-24.28-5.32c-7.13-3.55-12.73-9.02-16.78-16.4-4.06-7.39-6.08-16.8-6.08-28.24h37.25c0,5.36.38,9.54,1.14,12.54.76,3.01,1.86,5.1,3.31,6.3,1.45,1.19,3.26,1.79,5.43,1.79,2.32,0,4.2-.89,5.65-2.66,1.45-1.77,2.55-4.34,3.31-7.71.76-3.37,1.14-7.4,1.14-12.11Z"/>
      <path class="cls-2" d="M3534.58,1150.34v158.14h-37.15v-158.14h37.15ZM3591.17,1150.34v29.43h-69.51v-29.43h69.51ZM3581.82,1213.12v28.35h-60.17v-28.35h60.17ZM3590.84,1279.16v29.33h-69.19v-29.33h69.19Z"/>
      <path class="cls-2" d="M3667.67,1254.83h-31.61v-29.43h31.61c3.69,0,6.68-.91,8.96-2.72,2.28-1.81,3.95-4.33,5-7.55,1.05-3.22,1.58-6.86,1.58-10.92,0-4.34-.53-8.36-1.58-12.06-1.05-3.69-2.71-6.68-5-8.96-2.28-2.28-5.27-3.42-8.96-3.42h-18.03v128.71h-37.15v-158.14h55.18c10.93,0,20.36,2.32,28.29,6.95,7.93,4.63,14.05,10.99,18.36,19.06,4.31,8.07,6.46,17.29,6.46,27.64s-2.16,19.12-6.46,26.72c-4.31,7.6-10.43,13.52-18.36,17.76-7.93,4.24-17.36,6.35-28.29,6.35Z"/>
    </g>
  </g>
</svg>