<?xml version="1.0" encoding="UTF-8"?>
<svg id="Capa_2" data-name="Capa 2" xmlns="http://www.w3.org/2000/svg" viewBox="0 0 3717.53 1012.17">
  <defs>
    <style>
      .cls-1 {
        fill: #8eb524;
      }

      .cls-2 {
        fill: #f2f2f2;
      }
    </style>
  </defs>
  <g id="Layer_1" data-name="Layer 1">
    <g>
      <path class="cls-2" d="M0,86.83h425.79c137.64,0,232.83,36.29,293.29,97.2,52.74,53.14,79.76,121.82,79.76,211.25v2.59c0,139.97-73.32,231.98-185.24,279.94l214.83,316.23h-286.86l-181.38-274.75h-110.63v274.75H0V86.83ZM415.5,522.29c83.62,0,133.78-41.47,133.78-107.57v-2.59c0-72.58-52.74-108.86-135.07-108.86h-164.66v219.02h165.94Z"/>
      <path class="cls-2" d="M870.88,646.7v-2.59c0-204.77,145.36-366.77,351.18-366.77,239.27,0,349.89,177.55,349.89,383.62,0,15.55,0,33.7-1.29,50.54h-465.67c19.3,76.46,74.61,115.34,150.51,115.34,59.17,0,104.2-22.03,154.37-71.28l135.07,112.75c-66.89,85.54-163.37,142.56-301.01,142.56-218.68,0-373.05-147.74-373.05-364.18ZM1344.27,585.79c-9-77.76-55.31-127.01-122.21-127.01s-108.06,49.25-120.92,127.01h243.13Z"/>
      <path class="cls-2" d="M1683.86,47.95h243.12v946.08h-243.12V47.95Z"/>
      <path class="cls-2" d="M2031.18,793.15v-2.59c0-146.45,109.34-220.32,272.71-220.32,64.32,0,127.35,11.66,167.23,27.22v-11.66c0-73.87-45.02-115.34-138.93-115.34-73.32,0-129.92,15.55-192.96,38.88l-50.17-172.37c78.47-32.4,162.08-54.43,281.72-54.43s209.68,29.81,264.99,85.54c52.74,51.84,74.61,124.42,74.61,222.91v403.06h-240.55v-73.87c-48.88,53.14-114.49,89.42-205.82,89.42-132.5,0-232.83-77.76-232.83-216.43ZM2473.69,740.01v-32.4c-25.73-10.37-60.46-18.14-96.48-18.14-70.75,0-111.92,33.7-111.92,86.83v2.59c0,47.95,36.02,76.46,86.19,76.46,72.04,0,122.21-45.36,122.21-115.34Z"/>
      <path class="cls-2" d="M2872.48,776.3v-286.42h-82.33v-196.99h82.33V115.34h243.13v177.55h162.08v196.99h-162.08v238.47c0,49.25,21.87,69.98,66.89,69.98,32.16,0,63.03-9.07,92.62-23.33v191.81c-43.74,24.62-101.62,41.47-169.8,41.47-146.65,0-232.83-64.8-232.83-231.98Z"/>
      <path class="cls-1" d="M3617.21,828.14c19.72,0,37.28-4.31,52.72-12.95l-6.42,146.44c-40.31,33.69-86.17,50.55-137.61,50.55-78.02,0-128.59-18.14-151.75-54.42-15.44-24.19-23.14-49.89-23.14-77.11s1.7-51.19,5.14-71.94l77.16-438.05h218.62l-72.02,408.23c-.86,5.19-1.28,9.95-1.28,14.27,0,23.33,12.86,34.98,38.58,34.98ZM3459.03,159.41c0-55.28,12.22-95.67,36.66-121.17,24.44-25.48,62.38-38.23,113.81-38.23,72.02,0,108.03,31.97,108.03,95.91,0,54.44-12.22,94.17-36.66,119.23s-62.81,37.58-115.09,37.58c-71.17,0-106.75-31.09-106.75-93.31Z"/>
    </g>
  </g>
</svg>